<svg width="28" height="28" viewBox="0 0 28 28" fill="none" xmlns="http://www.w3.org/2000/svg">
<path d="M3.20001 6.37695C3.20001 6.83398 3.58673 7.2207 4.02618 7.2207H6.77716L8.13947 16.5195C8.33282 17.8467 9.03595 18.6553 10.3807 18.6553H20.6111C21.0242 18.6553 21.4022 18.3301 21.4022 17.8643C21.4022 17.4072 21.0242 17.082 20.6111 17.082H10.5828C10.1609 17.082 9.89728 16.792 9.83575 16.3438L9.69513 15.4297H20.6815C22.0262 15.4297 22.7381 14.6123 22.9315 13.2764L23.5906 8.87305C23.6082 8.75879 23.6258 8.60938 23.6258 8.5127C23.6258 7.99414 23.2654 7.64258 22.659 7.64258H8.57892L8.43829 6.69336C8.32404 5.92871 8.01642 5.54199 7.04083 5.54199H4.02618C3.58673 5.54199 3.20001 5.92871 3.20001 6.37695ZM9.56329 21.5293C9.56329 22.3818 10.2488 23.0674 11.1014 23.0674C11.9539 23.0674 12.6395 22.3818 12.6395 21.5293C12.6395 20.6768 11.9539 19.9912 11.1014 19.9912C10.2488 19.9912 9.56329 20.6768 9.56329 21.5293ZM17.6756 21.5293C17.6756 22.3818 18.3699 23.0674 19.2225 23.0674C20.075 23.0674 20.7518 22.3818 20.7518 21.5293C20.7518 20.6768 20.075 19.9912 19.2225 19.9912C18.3699 19.9912 17.6756 20.6768 17.6756 21.5293Z" fill="white"/>
</svg>
