<svg width="59" height="59" viewBox="0 0 59 59" fill="none" xmlns="http://www.w3.org/2000/svg">
<path d="M54.9392 33.076C58.4709 26.3481 51.2922 21.6825 41.9066 19.3944C42.6128 17.7894 42.8174 15.6885 40.8262 13.6825C38.2726 11.115 39.9698 7.375 39.9698 7.375C39.9698 7.375 34.61 12.319 37.9942 15.7281C39.2424 16.9846 39.8923 18.0881 40.203 19.0109C37.612 18.4768 34.9884 18.1153 32.3495 17.9286C33.1377 15.7862 33.2143 13.0952 30.7307 10.5186C27.3308 6.98689 29.595 1.84375 29.595 1.84375C29.595 1.84375 22.4477 8.64166 26.9603 13.3285C28.6076 15.0376 29.4751 16.5421 29.8955 17.8033C27.0985 17.7194 24.4067 17.842 22.0153 18.1766C22.3002 16.7984 22.0623 15.2137 20.5422 13.6834C17.9886 11.116 19.6867 7.375 19.6867 7.375C19.6867 7.375 14.326 12.319 17.7111 15.7281C18.7712 16.7956 19.3926 17.7489 19.7493 18.5795C19.3456 18.668 18.9538 18.7638 18.5767 18.868C6.92238 17.7774 1.83916 20.1854 4.16136 24.9091C0.108798 28.9616 1.63174 33.5867 6.70297 37.1257C9.34875 48.0232 10.03 57.1562 29.9573 57.1562C47.7384 57.1562 50.1952 49.8827 52.3976 40.5736C59.0056 39.258 57.5979 36.0905 54.9392 33.076V33.076ZM53.2918 31.9872C51.0783 36.7072 41.4724 40.2601 29.9573 40.2601C18.443 40.2601 8.83711 36.7072 6.62277 31.9872C6.57575 31.8471 6.53058 31.7014 6.48541 31.5595C7.54003 28.8842 10.9676 26.5629 15.7816 25.0086C14.6505 26.102 14.4154 27.7346 17.3921 28.3071C18.2439 28.4712 20.5827 27.9033 19.5604 25.0013C19.4175 24.5956 19.1842 24.3237 18.8975 24.1596C22.2052 23.4027 25.96 22.9667 29.9573 22.9667C30.4053 22.9667 30.845 22.9823 31.2866 22.9925C28.9801 23.8111 27.0985 26.3334 31.8084 27.0773C32.8483 27.2414 35.7033 26.6735 34.4551 23.7715C34.3461 23.5128 34.1713 23.2872 33.9481 23.1169C38.3611 23.4414 42.3593 24.2914 45.5914 25.5166C42.7492 25.358 39.5964 27.1096 44.6455 29.5756C45.7287 30.1048 49.0198 30.5906 48.5672 27.3861C48.5344 27.1546 48.4527 26.9328 48.3275 26.7353C50.9115 28.0969 52.7138 29.748 53.4282 31.5595L53.2918 31.9872Z" fill="white"/>
<path d="M23.8185 33.9628C26.7989 33.9628 28.7865 31.2682 30.3435 30.2135C32.5192 28.7385 37.9896 28.1633 33.1719 28.0471C28.6021 27.9374 22.9602 31.647 19.1898 31.3917C12.9468 30.9676 19.341 33.9628 23.8185 33.9628V33.9628ZM30.2587 39.4682C31.3115 39.671 34.2053 38.9686 32.9395 35.3797C31.5097 31.3189 22.8542 38.043 30.2587 39.4682ZM13.8715 30.586C12.8657 29.1663 11.4073 27.3659 10.8035 28.3034C9.9784 29.5857 9.71843 32.1661 10.3177 32.2804C15.0155 33.181 14.6864 31.7355 13.8715 30.586V30.586ZM41.182 31.1612C42.0292 30.1121 40.3376 27.5871 39.2516 28.0287C37.5517 28.7201 36.5717 28.2518 35.825 29.3009C34.0762 31.7577 40.0306 32.5855 41.182 31.1612ZM40.6529 34.1675C39.4341 33.63 39.7218 35.4304 37.9214 33.9858C36.6326 32.9515 33.8596 35.5604 35.6886 37.3323C37.7241 39.3041 38.2661 37.43 39.1216 37.5876C40.8603 37.9075 43.8499 35.5779 40.6529 34.1675ZM20.3882 34.7833C19.753 34.1582 18.9012 34.9123 18.42 35.8324C17.9434 35.5982 17.5553 35.5438 17.5553 35.5438C17.1912 34.5058 16.1079 33.7941 16.1079 33.7941C16.1079 33.7941 16.2066 34.8736 16.3495 35.4C15.1529 34.975 15.116 32.8363 15.116 32.8363C15.116 32.8363 14.3131 33.3166 14.3859 34.1324C13.0685 33.0695 11.9466 33.5664 11.9466 33.5664C11.9466 33.5664 13.618 34.5067 13.8484 35.141C12.91 35.2138 12.3624 35.5383 12.0434 36.2933C12.0443 36.2998 13.8982 35.4111 15.27 36.0527C14.7288 36.4952 14.998 37.6005 14.998 37.6005C16.2748 36.2472 17.2944 36.3919 18.1103 36.6344C18.0116 37.0483 18.0181 37.4263 18.1932 37.6558C19.6083 39.5162 24.5376 39.0976 25.8614 37.7222C27.4645 36.0582 23.01 37.3636 20.3882 34.7833" fill="white"/>
<path d="M23.8701 27.7761C23.4506 28.6187 23.4479 29.2548 23.9328 29.9167C23.9392 29.9185 24.1282 27.872 25.3829 27.0238C25.4852 27.7152 26.5712 28.0508 26.5712 28.0508C25.7028 24.9754 28.2379 24.815 28.226 23.7115C26.8819 23.8249 26.1186 24.8021 26.1186 24.8021C25.0409 24.5818 23.8729 25.1451 23.8729 25.1451C23.8729 25.1451 24.851 25.6143 25.3755 25.7627C24.3965 26.5712 22.5417 25.5046 22.5417 25.5046C22.5417 25.5046 22.5417 26.4412 23.2792 26.7961C21.6908 27.3815 21.5414 28.5984 21.5414 28.5984C21.5414 28.5984 23.2063 27.648 23.8701 27.7761V27.7761ZM47.4249 31.9762C47.8066 31.2516 47.2498 30.4984 47.2498 30.4984C47.2498 30.4984 46.3933 32.4592 45.1258 32.3919C45.4595 31.9605 45.9665 31.0017 45.9665 31.0017C45.9665 31.0017 44.6925 31.2442 43.9568 32.0619C43.9568 32.0619 42.7621 31.7309 41.6153 32.4389C42.2624 33.3332 44.3956 31.9531 45.5268 34.9418C45.5268 34.9418 46.1998 34.0264 45.8706 33.4097C47.3844 33.3442 48.7543 34.8764 48.7589 34.8708C48.7533 34.0504 48.3735 33.5415 47.5337 33.1137C47.991 32.6169 49.8956 32.391 49.8956 32.391C49.8956 32.391 49.0511 31.5014 47.4249 31.9762" fill="white"/>
</svg>
